<?xml version="1.0" encoding="UTF-8" standalone="no"?>
<!-- Created with Inkscape (http://www.inkscape.org/) -->

<svg
   xmlns:dc="http://purl.org/dc/elements/1.1/"
   xmlns:cc="http://creativecommons.org/ns#"
   xmlns:rdf="http://www.w3.org/1999/02/22-rdf-syntax-ns#"
   xmlns:svg="http://www.w3.org/2000/svg"
   xmlns="http://www.w3.org/2000/svg"
   xmlns:sodipodi="http://sodipodi.sourceforge.net/DTD/sodipodi-0.dtd"
   xmlns:inkscape="http://www.inkscape.org/namespaces/inkscape"
   width="210mm"
   height="297mm"
   viewBox="0 0 744.09448819 1052.3622047"
   id="svg2"
   version="1.1"
   inkscape:version="0.91 r13725"
   sodipodi:docname="icon.svg">
  <defs
     id="defs4" />
  <sodipodi:namedview
     id="base"
     pagecolor="#ffffff"
     bordercolor="#666666"
     borderopacity="1.0"
     inkscape:pageopacity="0.0"
     inkscape:pageshadow="2"
     inkscape:zoom="0.24748737"
     inkscape:cx="128.47162"
     inkscape:cy="-691.54388"
     inkscape:document-units="px"
     inkscape:current-layer="layer1"
     showgrid="false"
     inkscape:window-width="1366"
     inkscape:window-height="719"
     inkscape:window-x="0"
     inkscape:window-y="25"
     inkscape:window-maximized="1" />
  <metadata
     id="metadata7">
    <rdf:RDF>
      <cc:Work
         rdf:about="">
        <dc:format>image/svg+xml</dc:format>
        <dc:type
           rdf:resource="http://purl.org/dc/dcmitype/StillImage" />
        <dc:title />
      </cc:Work>
    </rdf:RDF>
  </metadata>
  <g
     inkscape:label="Layer 1"
     inkscape:groupmode="layer"
     id="layer1">
    <rect
       style="opacity:1;fill:#14cc8f;fill-opacity:1;stroke:#000000;stroke-width:8.99050426;stroke-miterlimit:4;stroke-dasharray:none;stroke-opacity:1"
       id="rect4161"
       width="1987.5809"
       height="781.86664"
       x="-466.07614"
       y="-3.4282708"
       ry="0"
       inkscape:export-filename="/home/salamflamo/projects/money-manag/icons/icon-256x256.png"
       inkscape:export-xdpi="29.343054"
       inkscape:export-ydpi="29.343054" />
    <g
       id="g4186">
      <g
         id="g4175">
        <path
           sodipodi:nodetypes="ssccccs"
           inkscape:connector-curvature="0"
           id="path4139"
           d="m -348.35227,698.92825 c 110.21984,85.67293 336.48732,77.87948 442.26128,0 C 135.9053,668.00711 166.3984,646.16006 166.3984,590.29939 181.03056,441.78676 22.49737,242.84643 -72.43865,232.37162 l -114.22577,0 c -119.2695,59.1906 -234.17725,187.19501 -234.17725,357.92777 0,55.86067 40.55126,83.80362 72.4894,108.62886 z"
           style="opacity:1;fill:#ffc52f;fill-opacity:1;stroke:none;stroke-width:0.9067542;stroke-miterlimit:4;stroke-dasharray:none;stroke-opacity:1" />
        <path
           style="opacity:1;fill:#e2b440;fill-opacity:1;stroke:none;stroke-width:0.9067542;stroke-miterlimit:4;stroke-dasharray:none;stroke-opacity:1"
           d="m -115.50808,232.37193 0,527.66211 C -35.38106,757.52971 43.14346,736.30698 93.90988,698.92857 135.90617,668.00743 166.39817,646.16033 166.39817,590.29966 181.03033,441.78703 22.49825,242.84674 -72.43777,232.37193 l -43.07031,0 z"
           id="path4150"
           inkscape:connector-curvature="0" />
      </g>
      <g
         transform="translate(-477.14285,-108.57143)"
         inkscape:export-ydpi="200"
         inkscape:export-xdpi="200"
         inkscape:export-filename="/home/salamflamo/projects/icon.png"
         id="g4164">
        <path
           style="opacity:1;fill:#ffc52f;fill-opacity:1;stroke:none;stroke-width:0.45516551;stroke-miterlimit:4;stroke-dasharray:none;stroke-opacity:1"
           d="m 219.19909,148.64305 c 65.25299,-36.46385 199.2092,-33.14681 261.83011,0 24.8629,13.16056 42.9156,56.85408 42.9156,80.62932 8.66262,63.20949 -85.19314,117.78619 -141.39771,122.24445 l -67.62461,0 c -70.61064,-25.19252 -138.639,-49.5777 -138.639,-122.24445 0,-23.77524 24.0074,-70.06327 42.91561,-80.62932 z"
           id="rect4136"
           inkscape:connector-curvature="0"
           sodipodi:nodetypes="ssccccs" />
        <path
           style="opacity:1;fill:#e2b440;fill-opacity:1;stroke:none;stroke-width:0.45516551;stroke-miterlimit:4;stroke-dasharray:none;stroke-opacity:1"
           d="m 362.85742,122.80859 0,228.70899 19.68946,0 c 56.20456,-4.45826 150.06105,-59.03661 141.39843,-122.2461 0,-23.77524 -18.05311,-67.46834 -42.91601,-80.6289 -28.82691,-15.25881 -72.77226,-24.18856 -118.17188,-25.83399 z"
           id="path4155"
           inkscape:connector-curvature="0" />
      </g>
      <rect
         inkscape:export-ydpi="200"
         inkscape:export-xdpi="200"
         inkscape:export-filename="/home/salamflamo/projects/icon.png"
         ry="20.203053"
         y="216.98598"
         x="-234.32993"
         height="40.406105"
         width="215.16248"
         id="rect4141"
         style="opacity:1;fill:#08b1b1;fill-opacity:1;stroke:none;stroke-width:0.5;stroke-miterlimit:4;stroke-dasharray:none;stroke-opacity:1" />
      <path
         inkscape:export-ydpi="200"
         inkscape:export-xdpi="200"
         inkscape:export-filename="/home/salamflamo/projects/icon.png"
         id="rect4143"
         d="m -184.99441,216.98521 126.0332,40.40625 19.58984,0 c 11.1925,0 20.20313,-9.01063 20.20313,-20.20312 0,-11.1925 -9.01063,-20.20313 -20.20313,-20.20313 l -145.62304,0 z"
         style="opacity:1;fill:#058484;fill-opacity:1;stroke:none;stroke-width:0.5;stroke-miterlimit:4;stroke-dasharray:none;stroke-opacity:1"
         inkscape:connector-curvature="0" />
      <g
         id="g4179">
        <g
           id="g4181"
           transform="matrix(-0.40791022,-0.40791022,0.40791022,-0.40791022,-479.37638,589.44309)"
           inkscape:export-filename="/home/salamflamo/projects/icon.png"
           inkscape:export-xdpi="200"
           inkscape:export-ydpi="200">
          <circle
             r="251.52798"
             cy="534.15399"
             cx="-330.31989"
             id="path4172"
             style="opacity:1;fill:#08b1b1;fill-opacity:1;stroke:none;stroke-width:0.5;stroke-miterlimit:4;stroke-dasharray:none;stroke-opacity:1" />
          <path
             id="circle4176"
             d="m -581.49414,527.08203 a 251.52798,251.52798 0 0 0 -0.35352,7.07227 251.52798,251.52798 0 0 0 251.52735,251.52734 251.52798,251.52798 0 0 0 251.529294,-251.52734 251.52798,251.52798 0 0 0 -0.25,-7.07227 l -502.453124,0 z"
             style="opacity:1;fill:#058484;fill-opacity:1;stroke:none;stroke-width:0.5;stroke-miterlimit:4;stroke-dasharray:none;stroke-opacity:1"
             inkscape:connector-curvature="0" />
        </g>
        <text
           xml:space="preserve"
           style="font-style:normal;font-weight:normal;font-size:135.47694397px;line-height:125%;font-family:sans-serif;letter-spacing:0px;word-spacing:0px;fill:#ffffff;fill-opacity:1;stroke:#ffffff;stroke-width:4.51071548;stroke-linecap:butt;stroke-linejoin:miter;stroke-miterlimit:4;stroke-dasharray:none;stroke-opacity:1"
           x="-232.62309"
           y="540.92694"
           id="text4204"
           sodipodi:linespacing="125%"
           inkscape:export-filename="/home/salamflamo/projects/icon.png"
           inkscape:export-xdpi="200"
           inkscape:export-ydpi="200"><tspan
             sodipodi:role="line"
             id="tspan4206"
             x="-232.62309"
             y="540.92694"
             style="font-style:normal;font-variant:normal;font-weight:normal;font-stretch:normal;font-family:'Phetsarath OT';-inkscape-font-specification:'Phetsarath OT';fill:#ffffff;stroke:#ffffff;stroke-width:4.51071548;stroke-miterlimit:4;stroke-dasharray:none">Rp.</tspan></text>
      </g>
    </g>
    <text
       xml:space="preserve"
       style="font-style:normal;font-weight:normal;font-size:284.8984375px;line-height:125%;font-family:sans-serif;letter-spacing:0px;word-spacing:0px;fill:#000000;fill-opacity:1;stroke:none;stroke-width:1px;stroke-linecap:butt;stroke-linejoin:miter;stroke-opacity:1"
       x="74.247704"
       y="292.84219"
       id="text4148"
       sodipodi:linespacing="125%"><tspan
         sodipodi:role="line"
         id="tspan4150"
         x="74.247704"
         y="292.84219"
         style="font-style:normal;font-variant:normal;font-weight:normal;font-stretch:normal;font-family:Neuropolitical;-inkscape-font-specification:Neuropolitical">Money</tspan></text>
    <text
       xml:space="preserve"
       style="font-style:normal;font-weight:normal;font-size:204.79983521px;line-height:125%;font-family:sans-serif;letter-spacing:0px;word-spacing:0px;fill:#000000;fill-opacity:1;stroke:none;stroke-width:1px;stroke-linecap:butt;stroke-linejoin:miter;stroke-opacity:1"
       x="-498.42834"
       y="-96.714256"
       id="text4202"
       sodipodi:linespacing="125%"><tspan
         sodipodi:role="line"
         id="tspan4204"
         x="-498.42834"
         y="-96.714256">#14cc8f warna dasar</tspan></text>
    <rect
       inkscape:export-ydpi="8.0480938"
       inkscape:export-xdpi="8.0480938"
       inkscape:export-filename="/home/salamflamo/projects/money-manag/icons/icon-256x256.png"
       ry="0"
       y="904.63531"
       x="-426.58401"
       height="715.69745"
       width="2341.6353"
       id="rect4206"
       style="opacity:1;fill:#00bfa5;fill-opacity:1;stroke:none;stroke-width:10.50992489;stroke-miterlimit:4;stroke-dasharray:none;stroke-opacity:1" />
    <path
       style="opacity:1;fill:#ffc52f;fill-opacity:1;stroke:#ffffff;stroke-width:14;stroke-miterlimit:4;stroke-dasharray:none;stroke-opacity:1"
       d="m -141.46567,933.40625 c -43.0159,-0.3605 -86.31758,6.84497 -114.68558,22.69727 -16.4403,9.1869 -37.3125,49.43348 -37.3125,70.10548 0,44.2391 29.0075,67.8906 67.47074,85.6191 -5.71377,2.8924 -9.62109,8.7986 -9.62109,15.6641 0,6.1593 3.14265,11.5515 7.91406,14.6855 -90.69581,57.2196 -170.08591,160.0087 -170.08591,292.336 0,48.5695 35.2578,72.8661 63.0273,94.4511 95.83358,74.4907 292.569055,67.7144 384.537115,0 36.51482,-26.8852 63.025405,-45.8816 63.025405,-94.4511 10.72739,-108.8803 -85.587375,-248.9106 -165.542975,-295.6153 2.61706,-3.0659 4.20312,-7.0408 4.20312,-11.4062 0,-5.6763 -2.67551,-10.6932 -6.82812,-13.9004 36.69055,-19.5085 69.04896,-51.8669 64.1816401,-87.3828 0,-20.672 -15.69673,-58.66268 -37.3144601,-70.10548 -27.22373,-14.4102 -69.95284,-22.33677 -112.968745,-22.69727 z"
       id="path4270"
       inkscape:connector-curvature="0"
       inkscape:export-xdpi="8.0480938"
       inkscape:export-ydpi="8.0480938" />
    <g
       id="g4410"
       inkscape:export-xdpi="8.0480938"
       inkscape:export-ydpi="8.0480938">
      <g
         transform="matrix(0.86947736,0,0,0.86947736,-31.870614,921.26194)"
         id="g4210"
         style="stroke:none">
        <path
           style="opacity:1;fill:#ffc52f;fill-opacity:1;stroke:none;stroke-width:0.9067542;stroke-miterlimit:4;stroke-dasharray:none;stroke-opacity:1"
           d="m -348.35227,698.92825 c 110.21984,85.67293 336.48732,77.87948 442.26128,0 C 135.9053,668.00711 166.3984,646.16006 166.3984,590.29939 181.03056,441.78676 22.49737,242.84643 -72.43865,232.37162 l -114.22577,0 c -119.2695,59.1906 -234.17725,187.19501 -234.17725,357.92777 0,55.86067 40.55126,83.80362 72.4894,108.62886 z"
           id="path4212"
           inkscape:connector-curvature="0"
           sodipodi:nodetypes="ssccccs" />
        <path
           inkscape:connector-curvature="0"
           id="path4214"
           d="m -115.50808,232.37193 0,527.66211 C -35.38106,757.52971 43.14346,736.30698 93.90988,698.92857 135.90617,668.00743 166.39817,646.16033 166.39817,590.29966 181.03033,441.78703 22.49825,242.84674 -72.43777,232.37193 l -43.07031,0 z"
           style="opacity:1;fill:#e2b440;fill-opacity:1;stroke:none;stroke-width:0.9067542;stroke-miterlimit:4;stroke-dasharray:none;stroke-opacity:1" />
      </g>
      <g
         id="g4331">
        <path
           sodipodi:nodetypes="ssccccs"
           inkscape:connector-curvature="0"
           id="path4218"
           d="m -256.14687,956.10331 c 56.73599,-31.7045 173.207885,-28.8204 227.655349,0 21.6177286,11.44281 37.3141425,49.43329 37.3141425,70.10539 7.5319515,54.9592 -74.0735065,102.4124 -122.9421115,106.2888 l -58.79806,0 c -61.39436,-21.9044 -120.54348,-43.1067 -120.54348,-106.2888 0,-20.6721 20.8739,-60.91845 37.31416,-70.10539 z"
           style="opacity:1;fill:#ffc52f;fill-opacity:1;stroke:none;stroke-width:0.3957561;stroke-miterlimit:4;stroke-dasharray:none;stroke-opacity:1" />
        <path
           inkscape:connector-curvature="0"
           id="path4220"
           d="m -131.23921,933.64083 0,198.85727 17.11954,0 c 48.868594,-3.8763 130.474687,-51.331 122.9427349,-106.2902 0,-20.672 -15.6967704,-58.66219 -37.3144989,-70.105 -25.064346,-13.26719 -63.273833,-21.03141 -102.747776,-22.46207 z"
           style="opacity:1;fill:#e2b440;fill-opacity:1;stroke:none;stroke-width:0.3957561;stroke-miterlimit:4;stroke-dasharray:none;stroke-opacity:1" />
      </g>
      <g
         id="g4365">
        <rect
           inkscape:export-ydpi="200"
           inkscape:export-xdpi="200"
           inkscape:export-filename="/home/salamflamo/projects/icon.png"
           ry="17.566097"
           y="1109.9264"
           x="-235.61517"
           height="35.132195"
           width="187.0789"
           id="rect4222"
           style="opacity:1;fill:#08b1b1;fill-opacity:1;stroke:none;stroke-width:0.5;stroke-miterlimit:4;stroke-dasharray:none;stroke-opacity:1" />
        <path
           inkscape:export-ydpi="200"
           inkscape:export-xdpi="200"
           inkscape:export-filename="/home/salamflamo/projects/icon.png"
           id="path4224"
           d="m -192.71907,1109.9257 109.583019,35.1323 17.032922,0 c 9.731626,0 17.566164,-7.8346 17.566164,-17.5662 0,-9.7316 -7.834538,-17.5661 -17.566164,-17.5661 l -126.615941,0 z"
           style="opacity:1;fill:#058484;fill-opacity:1;stroke:none;stroke-width:0.5;stroke-miterlimit:4;stroke-dasharray:none;stroke-opacity:1"
           inkscape:connector-curvature="0" />
      </g>
      <g
         transform="matrix(0.86947736,0,0,0.86947736,-31.870614,921.26194)"
         id="g4226"
         style="stroke:none">
        <g
           inkscape:export-ydpi="200"
           inkscape:export-xdpi="200"
           inkscape:export-filename="/home/salamflamo/projects/icon.png"
           transform="matrix(-0.40791022,-0.40791022,0.40791022,-0.40791022,-479.37638,589.44309)"
           id="g4228"
           style="stroke:none">
          <circle
             style="opacity:1;fill:#08b1b1;fill-opacity:1;stroke:none;stroke-width:0.5;stroke-miterlimit:4;stroke-dasharray:none;stroke-opacity:1"
             id="circle4230"
             cx="-330.31989"
             cy="534.15399"
             r="251.52798" />
          <path
             inkscape:connector-curvature="0"
             style="opacity:1;fill:#058484;fill-opacity:1;stroke:none;stroke-width:0.5;stroke-miterlimit:4;stroke-dasharray:none;stroke-opacity:1"
             d="m -581.49414,527.08203 a 251.52798,251.52798 0 0 0 -0.35352,7.07227 251.52798,251.52798 0 0 0 251.52735,251.52734 251.52798,251.52798 0 0 0 251.529294,-251.52734 251.52798,251.52798 0 0 0 -0.25,-7.07227 l -502.453124,0 z"
             id="path4232" />
        </g>
        <text
           inkscape:export-ydpi="200"
           inkscape:export-xdpi="200"
           inkscape:export-filename="/home/salamflamo/projects/icon.png"
           sodipodi:linespacing="125%"
           id="text4234"
           y="540.92694"
           x="-232.62309"
           style="font-style:normal;font-weight:normal;font-size:135.47694397px;line-height:125%;font-family:sans-serif;letter-spacing:0px;word-spacing:0px;fill:#ffffff;fill-opacity:1;stroke:none;stroke-width:4.51071548;stroke-linecap:butt;stroke-linejoin:miter;stroke-miterlimit:4;stroke-dasharray:none;stroke-opacity:1"
           xml:space="preserve"><tspan
             style="font-style:normal;font-variant:normal;font-weight:normal;font-stretch:normal;font-family:'Phetsarath OT';-inkscape-font-specification:'Phetsarath OT';fill:#ffffff;stroke:none;stroke-width:4.51071548;stroke-miterlimit:4;stroke-dasharray:none"
             y="540.92694"
             x="-232.62309"
             id="tspan4236"
             sodipodi:role="line">Rp.</tspan></text>
      </g>
    </g>
    <g
       id="g4431"
       transform="translate(0,-33.385861)"
       inkscape:export-xdpi="8.0480938"
       inkscape:export-ydpi="8.0480938">
      <text
         sodipodi:linespacing="125%"
         id="text4427"
         y="1005.5679"
         x="254.29541"
         style="font-style:normal;font-weight:normal;font-size:415.84191895px;line-height:125%;font-family:sans-serif;letter-spacing:0px;word-spacing:0px;fill:#666666;fill-opacity:1;stroke:none;stroke-width:12;stroke-linecap:butt;stroke-linejoin:miter;stroke-miterlimit:4;stroke-dasharray:none;stroke-opacity:1"
         xml:space="preserve"
         transform="scale(0.67385789,1.4839924)"><tspan
           style="font-style:normal;font-variant:normal;font-weight:normal;font-stretch:normal;font-family:Neuropolitical;-inkscape-font-specification:Neuropolitical;fill:#666666;fill-opacity:1;stroke:none;stroke-width:12;stroke-miterlimit:4;stroke-dasharray:none;stroke-opacity:1"
           y="1005.5679"
           x="254.29541"
           id="tspan4429"
           sodipodi:role="line">M</tspan></text>
      <text
         transform="scale(0.67385789,1.4839924)"
         xml:space="preserve"
         style="font-style:normal;font-weight:normal;font-size:415.84191895px;line-height:125%;font-family:sans-serif;letter-spacing:0px;word-spacing:0px;fill:#ffffff;fill-opacity:1;stroke:#ffc52f;stroke-width:10.27800179;stroke-linecap:butt;stroke-linejoin:miter;stroke-miterlimit:4;stroke-dasharray:none;stroke-opacity:1"
         x="239.04292"
         y="1014.8024"
         id="text4238"
         sodipodi:linespacing="125%"><tspan
           sodipodi:role="line"
           id="tspan4240"
           x="239.04292"
           y="1014.8024"
           style="font-style:normal;font-variant:normal;font-weight:normal;font-stretch:normal;font-family:Neuropolitical;-inkscape-font-specification:Neuropolitical;fill:#ffffff;fill-opacity:1;stroke:#ffc52f;stroke-width:10.27800179;stroke-miterlimit:4;stroke-dasharray:none;stroke-opacity:1">M</tspan></text>
      <text
         sodipodi:linespacing="125%"
         id="text4242"
         y="1179.3671"
         x="496.52109"
         style="font-style:normal;font-weight:normal;font-size:191.01676941px;line-height:125%;font-family:sans-serif;letter-spacing:0px;word-spacing:0px;fill:#ffffff;fill-opacity:1;stroke:none;stroke-width:1px;stroke-linecap:butt;stroke-linejoin:miter;stroke-opacity:1"
         xml:space="preserve"><tspan
           style="font-style:normal;font-variant:normal;font-weight:normal;font-stretch:normal;font-family:Neuropolitical;-inkscape-font-specification:Neuropolitical;fill:#ffffff;fill-opacity:1"
           y="1179.3671"
           x="496.52109"
           id="tspan4244"
           sodipodi:role="line">oney</tspan></text>
      <text
         xml:space="preserve"
         style="font-style:normal;font-weight:normal;font-size:191.01676941px;line-height:125%;font-family:sans-serif;letter-spacing:0px;word-spacing:0px;fill:#ffffff;fill-opacity:1;stroke:none;stroke-width:1px;stroke-linecap:butt;stroke-linejoin:miter;stroke-opacity:1"
         x="498.04922"
         y="1484.2709"
         id="text4246"
         sodipodi:linespacing="125%"><tspan
           sodipodi:role="line"
           id="tspan4248"
           x="498.04922"
           y="1484.2709"
           style="font-style:normal;font-variant:normal;font-weight:normal;font-stretch:normal;font-family:Neuropolitical;-inkscape-font-specification:Neuropolitical;fill:#ffffff;fill-opacity:1">anagement</tspan></text>
    </g>
    <g
       id="g4250"
       inkscape:export-xdpi="90.085922"
       inkscape:export-ydpi="90.085922">
      <rect
         y="1556.4014"
         x="-1543.2247"
         height="1023.0233"
         width="1023.0233"
         id="rect4212"
         style="opacity:1;fill:#f9f9f9;fill-opacity:1;stroke:none;stroke-width:0.97668362;stroke-miterlimit:4;stroke-dasharray:none;stroke-opacity:1" />
      <g
         transform="matrix(1.4856744,0,0,1.4856744,-820.63485,199.14635)"
         id="g4180"
         inkscape:export-xdpi="8.0480938"
         inkscape:export-ydpi="8.0480938">
        <g
           transform="matrix(0.86947736,0,0,0.86947736,-31.870614,921.26194)"
           id="g4182"
           style="stroke:none">
          <path
             style="opacity:1;fill:#ffc52f;fill-opacity:1;stroke:none;stroke-width:0.9067542;stroke-miterlimit:4;stroke-dasharray:none;stroke-opacity:1"
             d="m -348.35227,698.92825 c 110.21984,85.67293 336.48732,77.87948 442.26128,0 C 135.9053,668.00711 166.3984,646.16006 166.3984,590.29939 181.03056,441.78676 22.49737,242.84643 -72.43865,232.37162 l -114.22577,0 c -119.2695,59.1906 -234.17725,187.19501 -234.17725,357.92777 0,55.86067 40.55126,83.80362 72.4894,108.62886 z"
             id="path4184"
             inkscape:connector-curvature="0"
             sodipodi:nodetypes="ssccccs" />
          <path
             inkscape:connector-curvature="0"
             id="path4186"
             d="m -115.50808,232.37193 0,527.66211 C -35.38106,757.52971 43.14346,736.30698 93.90988,698.92857 135.90617,668.00743 166.39817,646.16033 166.39817,590.29966 181.03033,441.78703 22.49825,242.84674 -72.43777,232.37193 l -43.07031,0 z"
             style="opacity:1;fill:#e2b440;fill-opacity:1;stroke:none;stroke-width:0.9067542;stroke-miterlimit:4;stroke-dasharray:none;stroke-opacity:1" />
        </g>
        <g
           id="g4188">
          <path
             sodipodi:nodetypes="ssccccs"
             inkscape:connector-curvature="0"
             id="path4190"
             d="m -256.14687,956.10331 c 56.73599,-31.7045 173.207885,-28.8204 227.655349,0 21.6177286,11.44281 37.3141425,49.43329 37.3141425,70.10539 7.5319515,54.9592 -74.0735065,102.4124 -122.9421115,106.2888 l -58.79806,0 c -61.39436,-21.9044 -120.54348,-43.1067 -120.54348,-106.2888 0,-20.6721 20.8739,-60.91845 37.31416,-70.10539 z"
             style="opacity:1;fill:#ffc52f;fill-opacity:1;stroke:none;stroke-width:0.3957561;stroke-miterlimit:4;stroke-dasharray:none;stroke-opacity:1" />
          <path
             inkscape:connector-curvature="0"
             id="path4192"
             d="m -131.23921,933.64083 0,198.85727 17.11954,0 c 48.868594,-3.8763 130.474687,-51.331 122.9427349,-106.2902 0,-20.672 -15.6967704,-58.66219 -37.3144989,-70.105 -25.064346,-13.26719 -63.273833,-21.03141 -102.747776,-22.46207 z"
             style="opacity:1;fill:#e2b440;fill-opacity:1;stroke:none;stroke-width:0.3957561;stroke-miterlimit:4;stroke-dasharray:none;stroke-opacity:1" />
        </g>
        <g
           id="g4194">
          <rect
             inkscape:export-ydpi="200"
             inkscape:export-xdpi="200"
             inkscape:export-filename="/home/salamflamo/projects/icon.png"
             ry="17.566097"
             y="1109.9264"
             x="-235.61517"
             height="35.132195"
             width="187.0789"
             id="rect4196"
             style="opacity:1;fill:#08b1b1;fill-opacity:1;stroke:none;stroke-width:0.5;stroke-miterlimit:4;stroke-dasharray:none;stroke-opacity:1" />
          <path
             inkscape:export-ydpi="200"
             inkscape:export-xdpi="200"
             inkscape:export-filename="/home/salamflamo/projects/icon.png"
             id="path4198"
             d="m -192.71907,1109.9257 109.583019,35.1323 17.032922,0 c 9.731626,0 17.566164,-7.8346 17.566164,-17.5662 0,-9.7316 -7.834538,-17.5661 -17.566164,-17.5661 l -126.615941,0 z"
             style="opacity:1;fill:#058484;fill-opacity:1;stroke:none;stroke-width:0.5;stroke-miterlimit:4;stroke-dasharray:none;stroke-opacity:1"
             inkscape:connector-curvature="0" />
        </g>
        <g
           transform="matrix(0.86947736,0,0,0.86947736,-31.870614,921.26194)"
           id="g4200"
           style="stroke:none">
          <g
             inkscape:export-ydpi="200"
             inkscape:export-xdpi="200"
             inkscape:export-filename="/home/salamflamo/projects/icon.png"
             transform="matrix(-0.40791022,-0.40791022,0.40791022,-0.40791022,-479.37638,589.44309)"
             id="g4202"
             style="stroke:none">
            <circle
               style="opacity:1;fill:#08b1b1;fill-opacity:1;stroke:none;stroke-width:0.5;stroke-miterlimit:4;stroke-dasharray:none;stroke-opacity:1"
               id="circle4204"
               cx="-330.31989"
               cy="534.15399"
               r="251.52798" />
            <path
               inkscape:connector-curvature="0"
               style="opacity:1;fill:#058484;fill-opacity:1;stroke:none;stroke-width:0.5;stroke-miterlimit:4;stroke-dasharray:none;stroke-opacity:1"
               d="m -581.49414,527.08203 a 251.52798,251.52798 0 0 0 -0.35352,7.07227 251.52798,251.52798 0 0 0 251.52735,251.52734 251.52798,251.52798 0 0 0 251.529294,-251.52734 251.52798,251.52798 0 0 0 -0.25,-7.07227 l -502.453124,0 z"
               id="path4206" />
          </g>
          <text
             inkscape:export-ydpi="200"
             inkscape:export-xdpi="200"
             inkscape:export-filename="/home/salamflamo/projects/icon.png"
             sodipodi:linespacing="125%"
             id="text4208"
             y="540.92694"
             x="-232.62309"
             style="font-style:normal;font-weight:normal;font-size:135.47694397px;line-height:125%;font-family:sans-serif;letter-spacing:0px;word-spacing:0px;fill:#ffffff;fill-opacity:1;stroke:none;stroke-width:4.51071548;stroke-linecap:butt;stroke-linejoin:miter;stroke-miterlimit:4;stroke-dasharray:none;stroke-opacity:1"
             xml:space="preserve"><tspan
               style="font-style:normal;font-variant:normal;font-weight:normal;font-stretch:normal;font-family:'Phetsarath OT';-inkscape-font-specification:'Phetsarath OT';fill:#ffffff;stroke:none;stroke-width:4.51071548;stroke-miterlimit:4;stroke-dasharray:none"
               y="540.92694"
               x="-232.62309"
               id="tspan4210"
               sodipodi:role="line">Rp.</tspan></text>
        </g>
      </g>
    </g>
  </g>
</svg>
